<svg width="21" height="24" viewBox="0 0 21 24" fill="none" xmlns="http://www.w3.org/2000/svg">
<path d="M16.4024 11.218V5.746H10.9304V8.14H13.7204V9.94C13.0184 10.444 12.1184 10.696 11.1104 10.696C8.87838 10.696 7.29438 9.004 7.29438 6.7V6.664C7.29438 4.522 8.89638 2.74 10.9124 2.74C12.3704 2.74 13.2344 3.208 14.2064 4.018L15.9524 1.912C14.6384 0.795999 13.2704 0.184 11.0024 0.184C7.18638 0.184 4.39638 3.118 4.39638 6.7V6.736C4.39638 10.462 7.09638 13.216 11.0204 13.216C13.3244 13.216 15.1064 12.316 16.4024 11.218ZM7.08637 24V17H5.56637V21.31L2.28637 17H0.866367V24H2.38637V19.55L5.77637 24H7.08637ZM14.0968 18.4V17H8.76676V24H10.3068V21.29H13.6468V19.89H10.3068V18.4H14.0968ZM20.6293 18.42V17H14.8293V18.42H16.9593V24H18.4993V18.42H20.6293Z" fill="#DA18A3"/>
</svg>
