<svg width="12" height="11" viewBox="0 0 12 11" fill="none" xmlns="http://www.w3.org/2000/svg">
<path d="M11.048 1.20105C10.4268 0.527313 9.57449 0.15625 8.6478 0.15625C7.95511 0.15625 7.32074 0.375244 6.76227 0.807098C6.48047 1.02509 6.22513 1.29178 6 1.60306C5.77496 1.29187 5.51953 1.02509 5.23764 0.807098C4.67926 0.375244 4.04489 0.15625 3.3522 0.15625C2.42551 0.15625 1.57306 0.527313 0.951874 1.20105C0.338104 1.86691 0 2.77658 0 3.7626C0 4.77747 0.378204 5.70645 1.19019 6.68625C1.91656 7.56268 2.96054 8.45239 4.16949 9.48264C4.58231 9.83447 5.05023 10.2333 5.5361 10.6581C5.66446 10.7705 5.82916 10.8324 6 10.8324C6.17075 10.8324 6.33554 10.7705 6.46371 10.6583C6.94958 10.2334 7.41779 9.83438 7.83078 9.48236C9.03955 8.4523 10.0835 7.56268 10.8099 6.68616C11.6219 5.70645 12 4.77747 12 3.76251C12 2.77658 11.6619 1.86691 11.048 1.20105Z" fill="white"/>
</svg>
