<svg width="32" height="32" viewBox="0 0 32 32" fill="none" xmlns="http://www.w3.org/2000/svg">
<path d="M20.4024 13.218V7.746H14.9304V10.14H17.7204V11.94C17.0124 12.444 16.1424 12.696 15.1104 12.696C14.5464 12.696 14.0304 12.6 13.5624 12.408C13.1064 12.204 12.7044 11.922 12.3564 11.562C12.0204 11.202 11.7564 10.782 11.5644 10.302C11.3844 9.81 11.2944 9.276 11.2944 8.7V8.664C11.2944 8.124 11.3844 7.62 11.5644 7.152C11.7564 6.672 12.0144 6.258 12.3384 5.91C12.6744 5.55 13.0584 5.268 13.4904 5.064C13.9344 4.848 14.4084 4.74 14.9124 4.74C15.2724 4.74 15.6024 4.77 15.9024 4.83C16.2024 4.89 16.4784 4.974 16.7304 5.082C16.9944 5.19 17.2464 5.322 17.4864 5.478C17.7264 5.634 17.9664 5.814 18.2064 6.018L19.9524 3.912C19.6284 3.636 19.2924 3.39 18.9444 3.174C18.5964 2.958 18.2244 2.778 17.8284 2.634C17.4324 2.49 17.0004 2.382 16.5324 2.31C16.0764 2.226 15.5664 2.184 15.0024 2.184C14.0424 2.184 13.1604 2.358 12.3564 2.706C11.5524 3.042 10.8564 3.51 10.2684 4.11C9.68038 4.698 9.21838 5.388 8.88238 6.18C8.55838 6.96 8.39638 7.8 8.39638 8.7V8.736C8.39638 9.672 8.55838 10.536 8.88238 11.328C9.20638 12.12 9.65638 12.804 10.2324 13.38C10.8204 13.956 11.5164 14.406 12.3204 14.73C13.1364 15.054 14.0364 15.216 15.0204 15.216C16.1724 15.216 17.1924 15.024 18.0804 14.64C18.9804 14.244 19.7544 13.77 20.4024 13.218ZM11.0864 25V18H9.56637V22.31L6.28637 18H4.86637V25H6.38637V20.55L9.77637 25H11.0864ZM18.0968 19.4V18H12.7668V25H14.3068V22.29H17.6468V20.89H14.3068V19.4H18.0968ZM24.6293 19.42V18H18.8293V19.42H20.9593V25H22.4993V19.42H24.6293Z" fill="#DA18A3"/>
</svg>
